<svg width="50" height="50" viewBox="0 0 50 50" fill="none" xmlns="http://www.w3.org/2000/svg">
<path d="M16.95 21.9C20.2361 21.9 22.9 19.2361 22.9 15.95C22.9 12.6639 20.2361 10 16.95 10C13.6639 10 11 12.6639 11 15.95C11 19.2361 13.6639 21.9 16.95 21.9Z" fill="#85A8F8"/>
<path d="M35.475 0H14.525C5.425 0 0 5.425 0 14.525V35.475C0 38.2 0.475 40.575 1.4 42.575C3.55 47.325 8.15 50 14.525 50H35.475C44.575 50 50 44.575 50 35.475V29.75V14.525C50 5.425 44.575 0 35.475 0ZM45.925 26.25C43.975 24.575 40.825 24.575 38.875 26.25L28.475 35.175C26.525 36.85 23.375 36.85 21.425 35.175L20.575 34.475C18.8 32.925 15.975 32.775 13.975 34.125L4.625 40.4C4.075 39 3.75 37.375 3.75 35.475V14.525C3.75 7.475 7.475 3.75 14.525 3.75H35.475C42.525 3.75 46.25 7.475 46.25 14.525V26.525L45.925 26.25Z" fill="#85A8F8"/>
</svg>
