<svg width="32" height="33" viewBox="0 0 32 33" fill="none" xmlns="http://www.w3.org/2000/svg">
<path d="M21.3332 11.167H10.6665V21.8337H21.3332V11.167Z" fill="#7C5CFC"/>
<path opacity="0.4" d="M6.6665 29.833C8.8665 29.833 10.6665 28.033 10.6665 25.833V21.833H6.6665C4.4665 21.833 2.6665 23.633 2.6665 25.833C2.6665 28.033 4.4665 29.833 6.6665 29.833Z" fill="#7C5CFC"/>
<path opacity="0.4" d="M6.6665 11.167H10.6665V7.16699C10.6665 4.96699 8.8665 3.16699 6.6665 3.16699C4.4665 3.16699 2.6665 4.96699 2.6665 7.16699C2.6665 9.36699 4.4665 11.167 6.6665 11.167Z" fill="#7C5CFC"/>
<path opacity="0.4" d="M21.3335 11.167H25.3335C27.5335 11.167 29.3335 9.36699 29.3335 7.16699C29.3335 4.96699 27.5335 3.16699 25.3335 3.16699C23.1335 3.16699 21.3335 4.96699 21.3335 7.16699V11.167Z" fill="#7C5CFC"/>
<path opacity="0.4" d="M25.3335 29.833C27.5335 29.833 29.3335 28.033 29.3335 25.833C29.3335 23.633 27.5335 21.833 25.3335 21.833H21.3335V25.833C21.3335 28.033 23.1335 29.833 25.3335 29.833Z" fill="#7C5CFC"/>
</svg>
